<?xml version="1.0" encoding="utf-8"?>
<!-- Generator: Adobe Illustrator 26.0.0, SVG Export Plug-In . SVG Version: 6.00 Build 0)  -->
<svg version="1.1" id="Capa_1" xmlns="http://www.w3.org/2000/svg" xmlns:xlink="http://www.w3.org/1999/xlink" x="0px" y="0px"
	 viewBox="0 0 1080 1080" style="enable-background:new 0 0 1080 1080;" xml:space="preserve">
<style type="text/css">
	.st0{fill:#040409;}
	.st1{fill:#FFFFFF;}
	.st2{fill:#881722;}
</style>
<g>
	<g>
		<path class="st0" d="M941.48,323.45c0,0,26.65,15.01,85.59,2.25c0,0-67.2,42.79-114.5,45.8c0,0,32.66,15.01,64.94,10.13
			c0,0-58.31,26.29-117.57,25.25c0,0,10.58,13.79,62.01,14.55c0,0-75.08,22.53-123.12,15.01c0,0-4.58,11.92,28.08,16.45
			c0,0-59.19,18.11-95.08,2.26c0,0-0.66,8.74,23.29,13.59c0,0-25.81,3.46-49.42,1.04c-6.83-0.7-13.54-2.34-19.94-4.81
			c-3.96-1.53-8.15-2.3-12.34-2.3c-3.46,0-6.92,0.52-10.26,1.57l-6.36,2c-2.66,0.83-5.17,2.07-7.43,3.7
			c-8.61,6.16-30.86,19.51-47.02,39.26c0,0,9.17,24.24,55.74,34.9c0,0-8.46,13.91-33.58,10.74c-1.66-0.21-3.29-0.69-4.81-1.41
			l-3.68-1.75c-3.78-1.79-8.29-0.75-10.9,2.52c-2.92,2.94-6.74,4.39-10.55,4.39c-4.25,0-8.47-1.8-11.43-5.34l-0.78-0.94
			c-4.65-3.24-10.95-2.66-14.93,1.39l-3,2.66c-5.94,5.27-14.97,4.95-20.52-0.73l-3.93-4.03l-3.93,4.03
			c-5.55,5.68-14.58,6-20.52,0.73l-3-2.66c-3.97-4.05-10.28-4.63-14.93-1.39l-0.78,0.94c-2.95,3.54-7.18,5.34-11.43,5.34
			c-3.81,0-7.63-1.45-10.55-4.39c-2.6-3.27-7.12-4.3-10.9-2.52l-3.68,1.75c-1.52,0.71-3.14,1.2-4.81,1.41
			c-25.12,3.17-33.58-10.74-33.58-10.74c46.57-10.67,55.74-34.9,55.74-34.9c-16.16-19.75-38.41-33.11-47.02-39.26
			c-2.26-1.62-4.77-2.87-7.43-3.7l-6.36-2c-3.34-1.05-6.8-1.57-10.26-1.57c-4.19,0-8.38,0.77-12.34,2.3
			c-6.4,2.47-13.11,4.1-19.94,4.81c-23.61,2.42-49.42-1.04-49.42-1.04c23.94-4.85,23.29-13.59,23.29-13.59
			c-35.89,15.85-95.08-2.26-95.08-2.26c32.66-4.53,28.08-16.45,28.08-16.45c-48.04,7.51-123.12-15.01-123.12-15.01
			c51.43-0.75,62.01-14.55,62.01-14.55c-59.25,1.04-117.57-25.25-117.57-25.25c32.28,4.88,64.94-10.13,64.94-10.13
			c-47.3-3.01-114.5-45.8-114.5-45.8c58.94,12.76,85.59-2.25,85.59-2.25C70.57,318.56,0,237.86,0,237.86
			c100.23,45.79,159.16,42.42,159.16,42.42c-31.15-1.88-104.55-93.25-104.55-93.25c103.28,91.22,256.2,122.39,292.03,128.65
			c4.18,0.72,8.39,1.27,12.61,1.7c13.59,1.37,24.72,3.64,33.91,6.46c19.88,6.11,36.18,20.77,44,40.04
			c16.12,39.77,55.86,70.38,102.85,70.38c46.99,0,86.73-30.61,102.85-70.38c7.82-19.28,24.11-33.94,44-40.04
			c9.19-2.82,20.32-5.09,33.91-6.46c4.22-0.43,8.43-0.98,12.61-1.7c35.84-6.26,188.75-37.43,292.03-128.65
			c0,0-73.4,91.36-104.55,93.25c0,0,58.93,3.37,159.16-42.42C1080,237.86,1009.43,318.56,941.48,323.45z"/>
		<g>
			<g>
				<path class="st1" d="M582.73,487.57v4.75c0,16.52-13.35,29.93-29.83,29.93c-6.19,0-11.4-3.37-12.89-9.13
					c-1.49,5.77-6.7,9.13-12.91,9.13c-16.47,0-29.83-13.41-29.83-29.93v-4.75c0-20.73,16.76-37.52,37.41-37.52h10.63
					C565.98,450.04,582.73,466.83,582.73,487.57z"/>
			</g>
			<path class="st2" d="M540,511.18l10.86-5.74c21.44-11.33,13.38-43.8-10.86-43.8h0c-24.25,0-32.3,32.47-10.86,43.8L540,511.18z"/>
		</g>
	</g>
	<g>
		<g>
			<path class="st2" d="M122.19,731.87c1.66,0,3.14,0.64,4.42,1.93l12.03,13.05c-6.66,8.25-14.85,14.56-24.56,18.95
				c-9.72,4.39-21.39,6.58-35,6.58c-12.18,0-23.13-2.08-32.85-6.24c-9.72-4.16-18.02-9.95-24.9-17.36
				c-6.88-7.41-12.16-16.26-15.83-26.55C1.83,711.94,0,700.71,0,688.53c0-12.33,1.97-23.62,5.9-33.87
				c3.93-10.25,9.47-19.08,16.62-26.49c7.15-7.41,15.67-13.18,25.58-17.3c9.91-4.12,20.88-6.18,32.9-6.18
				c11.95,0,22.56,1.97,31.82,5.9c9.26,3.93,17.15,9.08,23.66,15.43l-10.21,14.18c-0.61,0.91-1.38,1.7-2.33,2.38
				c-0.95,0.68-2.25,1.02-3.91,1.02c-1.13,0-2.31-0.32-3.52-0.96c-1.21-0.64-2.54-1.44-3.97-2.38c-1.44-0.94-3.1-1.98-4.99-3.12
				c-1.89-1.14-4.08-2.17-6.58-3.12c-2.5-0.94-5.39-1.74-8.68-2.38c-3.29-0.64-7.09-0.96-11.4-0.96c-7.34,0-14.05,1.31-20.14,3.91
				c-6.09,2.61-11.33,6.39-15.71,11.35c-4.39,4.96-7.79,11.01-10.21,18.15c-2.42,7.15-3.63,15.3-3.63,24.45
				c0,9.23,1.31,17.43,3.91,24.62c2.61,7.19,6.14,13.24,10.61,18.15c4.46,4.92,9.72,8.68,15.77,11.29
				c6.05,2.61,12.55,3.91,19.51,3.91c4.16,0,7.92-0.23,11.29-0.68c3.36-0.45,6.47-1.17,9.3-2.16c2.84-0.98,5.52-2.25,8.06-3.8
				c2.53-1.55,5.05-3.46,7.54-5.73c0.76-0.68,1.55-1.23,2.38-1.64C120.42,732.08,121.29,731.87,122.19,731.87z"/>
			<path class="st2" d="M328.92,688.53c0,12.03-1.99,23.16-5.96,33.41c-3.97,10.25-9.59,19.12-16.85,26.61
				c-7.26,7.49-16,13.33-26.21,17.53c-10.21,4.2-21.56,6.3-34.04,6.3c-12.41,0-23.71-2.1-33.92-6.3
				c-10.21-4.2-18.97-10.04-26.27-17.53c-7.3-7.49-12.95-16.36-16.96-26.61c-4.01-10.25-6.01-21.39-6.01-33.41s2-23.16,6.01-33.41
				c4.01-10.25,9.66-19.12,16.96-26.61c7.3-7.49,16.05-13.33,26.27-17.53s21.52-6.3,33.92-6.3c8.32,0,16.15,0.96,23.49,2.89
				c7.34,1.93,14.07,4.65,20.2,8.17c6.13,3.52,11.63,7.79,16.51,12.82c4.88,5.03,9.02,10.65,12.42,16.85
				c3.4,6.2,5.99,12.93,7.77,20.2C328.03,672.87,328.92,680.51,328.92,688.53z M297.72,688.53c0-9-1.21-17.08-3.63-24.22
				c-2.42-7.15-5.86-13.22-10.33-18.21c-4.46-4.99-9.89-8.81-16.28-11.46c-6.39-2.65-13.6-3.97-21.61-3.97
				c-8.02,0-15.22,1.32-21.61,3.97c-6.39,2.65-11.84,6.47-16.34,11.46c-4.5,4.99-7.96,11.06-10.38,18.21
				c-2.42,7.15-3.63,15.22-3.63,24.22c0,9,1.21,17.08,3.63,24.22c2.42,7.15,5.88,13.2,10.38,18.15c4.5,4.96,9.94,8.76,16.34,11.4
				c6.39,2.65,13.59,3.97,21.61,3.97c8.02,0,15.22-1.32,21.61-3.97c6.39-2.65,11.82-6.45,16.28-11.4
				c4.46-4.95,7.9-11.01,10.33-18.15C296.5,705.61,297.72,697.53,297.72,688.53z"/>
			<path class="st2" d="M510.45,606.5v164.06h-15.66c-2.42,0-4.44-0.4-6.07-1.19c-1.63-0.79-3.2-2.14-4.71-4.03l-85.66-109.37
				c0.45,4.99,0.68,9.61,0.68,13.84v100.75h-26.89V606.5h16c1.29,0,2.4,0.06,3.35,0.17c0.94,0.11,1.78,0.34,2.5,0.68
				c0.72,0.34,1.42,0.83,2.1,1.47c0.68,0.64,1.44,1.49,2.27,2.55l86,109.83c-0.23-2.65-0.42-5.26-0.57-7.83
				c-0.15-2.57-0.23-4.95-0.23-7.15V606.5H510.45z"/>
			<path class="st2" d="M708.99,688.53c0,12.03-2,23.07-6.01,33.13c-4.01,10.06-9.64,18.72-16.9,25.98
				c-7.26,7.26-16,12.9-26.21,16.91c-10.21,4.01-21.56,6.01-34.04,6.01h-62.51V606.5h62.51c12.48,0,23.83,2.02,34.04,6.07
				c10.21,4.05,18.95,9.68,26.21,16.91c7.26,7.22,12.9,15.87,16.9,25.92C706.99,665.46,708.99,676.5,708.99,688.53z M677.68,688.53
				c0-9-1.19-17.08-3.57-24.22c-2.38-7.15-5.83-13.2-10.32-18.15c-4.5-4.95-9.95-8.75-16.34-11.4c-6.39-2.65-13.6-3.97-21.61-3.97
				h-31.88v115.5h31.88c8.02,0,15.22-1.32,21.61-3.97c6.39-2.65,11.84-6.45,16.34-11.4c4.5-4.95,7.94-11.01,10.32-18.15
				S677.68,697.53,677.68,688.53z"/>
			<path class="st2" d="M908.68,688.53c0,12.03-1.99,23.16-5.96,33.41c-3.97,10.25-9.59,19.12-16.85,26.61
				c-7.26,7.49-16,13.33-26.21,17.53c-10.21,4.2-21.56,6.3-34.04,6.3c-12.41,0-23.71-2.1-33.92-6.3
				c-10.21-4.2-18.97-10.04-26.27-17.53c-7.3-7.49-12.95-16.36-16.96-26.61c-4.01-10.25-6.01-21.39-6.01-33.41s2-23.16,6.01-33.41
				c4.01-10.25,9.66-19.12,16.96-26.61c7.3-7.49,16.05-13.33,26.27-17.53c10.21-4.2,21.52-6.3,33.92-6.3
				c8.32,0,16.15,0.96,23.49,2.89c7.34,1.93,14.07,4.65,20.2,8.17c6.13,3.52,11.63,7.79,16.51,12.82
				c4.88,5.03,9.02,10.65,12.42,16.85c3.4,6.2,5.99,12.93,7.77,20.2C907.79,672.87,908.68,680.51,908.68,688.53z M877.48,688.53
				c0-9-1.21-17.08-3.63-24.22c-2.42-7.15-5.86-13.22-10.33-18.21c-4.46-4.99-9.89-8.81-16.28-11.46
				c-6.39-2.65-13.6-3.97-21.61-3.97c-8.02,0-15.22,1.32-21.61,3.97c-6.39,2.65-11.84,6.47-16.34,11.46
				c-4.5,4.99-7.96,11.06-10.38,18.21c-2.42,7.15-3.63,15.22-3.63,24.22c0,9,1.21,17.08,3.63,24.22c2.42,7.15,5.88,13.2,10.38,18.15
				c4.5,4.96,9.94,8.76,16.34,11.4c6.39,2.65,13.59,3.97,21.61,3.97c8.02,0,15.22-1.32,21.61-3.97c6.39-2.65,11.82-6.45,16.28-11.4
				c4.46-4.95,7.9-11.01,10.33-18.15C876.27,705.61,877.48,697.53,877.48,688.53z"/>
			<path class="st2" d="M1080,770.56h-27.57c-5.22,0-9-2.04-11.35-6.13l-34.49-52.53c-1.29-1.97-2.71-3.37-4.25-4.2
				c-1.55-0.83-3.84-1.25-6.86-1.25h-13.05v64.1h-30.52V606.5h50.03c11.12,0,20.67,1.15,28.65,3.46c7.98,2.31,14.52,5.54,19.63,9.7
				c5.11,4.16,8.87,9.13,11.29,14.92c2.42,5.79,3.63,12.16,3.63,19.12c0,5.52-0.81,10.74-2.44,15.66
				c-1.63,4.92-3.97,9.38-7.03,13.39c-3.06,4.01-6.85,7.53-11.35,10.55c-4.5,3.03-9.63,5.41-15.37,7.15
				c1.97,1.13,3.78,2.48,5.45,4.03c1.66,1.55,3.18,3.39,4.54,5.5L1080,770.56z M1001.49,684.56c5.75,0,10.76-0.72,15.03-2.16
				c4.27-1.44,7.79-3.42,10.55-5.96c2.76-2.53,4.82-5.54,6.18-9.02c1.36-3.48,2.04-7.3,2.04-11.46c0-8.32-2.74-14.71-8.23-19.17
				c-5.49-4.46-13.86-6.69-25.13-6.69h-19.51v54.46H1001.49z"/>
		</g>
	</g>
	<g>
		<path class="st2" d="M54.17,886.53l-0.13,5.42H0v-90.18h54.04v5.42H6.56v36.46h39.51v5.29H6.56v37.6H54.17z"/>
		<path class="st2" d="M167.04,891.95h-6.44c-0.6,0-1.06-0.18-1.4-0.54c-0.34-0.36-0.62-0.71-0.83-1.05l-28.42-41.62
			c-0.17,0.64-0.47,1.27-0.89,1.91l-27.91,39.71c-0.3,0.38-0.61,0.74-0.92,1.08c-0.32,0.34-0.73,0.51-1.24,0.51h-6.12l32.63-46.27
			l-31.17-43.91h6.44c0.59,0,1.03,0.13,1.31,0.38c0.28,0.25,0.52,0.55,0.73,0.89l27.4,39.45c0.25-0.64,0.57-1.27,0.96-1.91
			l26.45-37.47c0.21-0.38,0.48-0.7,0.8-0.96c0.32-0.25,0.69-0.38,1.12-0.38h6.25L134.6,845.3L167.04,891.95z"/>
		<path class="st2" d="M236.06,801.77c10.58,0,18.56,2.32,23.93,6.95c5.37,4.63,8.06,11.24,8.06,19.82c0,3.95-0.74,7.58-2.23,10.9
			c-1.49,3.31-3.61,6.17-6.37,8.57c-2.76,2.4-6.12,4.27-10.07,5.61c-3.95,1.34-8.39,2.01-13.32,2.01H219.3v36.33h-6.56v-90.18
			H236.06z M236.06,850.4c3.95,0,7.5-0.55,10.64-1.66c3.14-1.1,5.81-2.63,8-4.59c2.19-1.95,3.87-4.26,5.03-6.91
			c1.17-2.65,1.75-5.55,1.75-8.7c0-6.92-2.13-12.26-6.37-16c-4.25-3.74-10.6-5.61-19.06-5.61H219.3v43.47H236.06z"/>
		<path class="st2" d="M370.28,886.53l-0.13,5.42h-54.05v-90.18h54.05v5.42h-47.48v36.46h39.51v5.29h-39.51v37.6H370.28z"/>
		<path class="st2" d="M495.71,846.83c0,6.97-1.04,13.24-3.12,18.8c-2.08,5.57-5.01,10.3-8.79,14.21c-3.78,3.91-8.32,6.9-13.61,8.99
			c-5.29,2.08-11.12,3.12-17.49,3.12h-32.95v-90.18h32.95c6.37,0,12.2,1.04,17.49,3.12c5.29,2.08,9.82,5.08,13.61,8.99
			c3.78,3.91,6.71,8.65,8.79,14.21C494.66,833.66,495.71,839.9,495.71,846.83z M488.95,846.83c0-6.29-0.87-11.9-2.61-16.83
			c-1.74-4.93-4.21-9.09-7.39-12.49c-3.19-3.4-7.01-5.99-11.47-7.77c-4.46-1.78-9.39-2.68-14.79-2.68H426.3v79.6h26.39
			c5.4,0,10.32-0.89,14.79-2.68c4.46-1.79,8.29-4.38,11.47-7.78c3.19-3.4,5.65-7.56,7.39-12.49
			C488.08,858.79,488.95,853.16,488.95,846.83z"/>
		<path class="st2" d="M552.87,891.95h-6.56v-90.18h6.56V891.95z"/>
		<path class="st2" d="M667.85,807.31h-31.68v84.64h-6.56v-84.64h-31.87v-5.55h70.11V807.31z"/>
		<path class="st2" d="M719.28,891.95h-6.56v-90.18h6.56V891.95z"/>
		<path class="st2" d="M855.73,846.83c0,6.97-1.04,13.29-3.12,18.96c-2.08,5.67-5.01,10.52-8.8,14.53
			c-3.78,4.02-8.32,7.12-13.61,9.31c-5.29,2.19-11.12,3.28-17.49,3.28s-12.2-1.09-17.46-3.28c-5.27-2.19-9.79-5.29-13.57-9.31
			c-3.78-4.01-6.71-8.86-8.79-14.53c-2.08-5.67-3.12-11.99-3.12-18.96c0-6.92,1.04-13.22,3.12-18.9c2.08-5.67,5.01-10.52,8.79-14.53
			c3.78-4.02,8.31-7.13,13.57-9.34c5.27-2.21,11.09-3.31,17.46-3.31s12.2,1.09,17.49,3.28c5.29,2.19,9.82,5.3,13.61,9.34
			c3.78,4.04,6.71,8.89,8.8,14.56C854.69,833.6,855.73,839.9,855.73,846.83z M848.97,846.83c0-6.29-0.87-11.94-2.61-16.95
			c-1.74-5.01-4.21-9.26-7.39-12.75c-3.19-3.48-7.01-6.15-11.47-8c-4.46-1.85-9.39-2.77-14.79-2.77c-5.35,0-10.26,0.92-14.72,2.77
			c-4.46,1.85-8.3,4.52-11.5,8c-3.21,3.48-5.69,7.73-7.46,12.75c-1.76,5.01-2.65,10.67-2.65,16.95c0,6.33,0.88,11.99,2.65,16.98
			c1.76,4.99,4.25,9.23,7.46,12.71c3.21,3.48,7.04,6.14,11.5,7.97c4.46,1.83,9.37,2.74,14.72,2.74c5.39,0,10.32-0.91,14.79-2.74
			c4.46-1.83,8.28-4.48,11.47-7.97c3.19-3.48,5.65-7.72,7.39-12.71C848.1,858.82,848.97,853.16,848.97,846.83z"/>
		<path class="st2" d="M975.8,801.77v90.18h-3.06c-0.55,0-1.01-0.1-1.37-0.29c-0.36-0.19-0.71-0.52-1.05-0.99l-58.57-78.26
			c0.13,1.27,0.19,2.48,0.19,3.63v75.91h-5.74v-90.18h3.25c0.59,0,1.05,0.08,1.37,0.22c0.32,0.15,0.67,0.48,1.05,0.99l58.44,78.07
			c-0.13-1.27-0.19-2.48-0.19-3.63v-75.65H975.8z"/>
		<path class="st2" d="M1075.92,812.73c-0.38,0.72-0.94,1.08-1.66,1.08c-0.55,0-1.26-0.39-2.13-1.18c-0.87-0.79-2.05-1.66-3.54-2.61
			c-1.49-0.96-3.35-1.84-5.58-2.65c-2.23-0.81-4.98-1.21-8.25-1.21c-3.27,0-6.15,0.47-8.64,1.4c-2.49,0.94-4.57,2.21-6.25,3.82
			c-1.68,1.62-2.95,3.48-3.82,5.61c-0.87,2.12-1.31,4.36-1.31,6.69c0,3.06,0.65,5.59,1.94,7.58c1.29,2,3.01,3.7,5.13,5.1
			c2.12,1.4,4.53,2.58,7.23,3.54c2.7,0.96,5.47,1.9,8.32,2.84c2.85,0.93,5.62,1.97,8.32,3.09c2.7,1.13,5.11,2.54,7.23,4.24
			c2.12,1.7,3.83,3.79,5.13,6.28c1.29,2.49,1.94,5.58,1.94,9.27c0,3.78-0.65,7.34-1.94,10.68c-1.3,3.34-3.18,6.24-5.64,8.7
			c-2.46,2.47-5.48,4.41-9.05,5.83c-3.57,1.42-7.65,2.14-12.24,2.14c-5.95,0-11.07-1.05-15.36-3.15c-4.29-2.1-8.05-4.98-11.28-8.64
			l1.79-2.8c0.51-0.64,1.1-0.96,1.78-0.96c0.38,0,0.87,0.25,1.47,0.76c0.59,0.51,1.32,1.14,2.17,1.88c0.85,0.74,1.87,1.55,3.06,2.42
			c1.19,0.87,2.57,1.68,4.14,2.42c1.57,0.74,3.38,1.37,5.42,1.88c2.04,0.51,4.35,0.77,6.95,0.77c3.57,0,6.76-0.54,9.56-1.63
			c2.8-1.08,5.17-2.56,7.11-4.43c1.93-1.87,3.41-4.09,4.43-6.66c1.02-2.57,1.53-5.32,1.53-8.25c0-3.19-0.65-5.81-1.94-7.87
			c-1.3-2.06-3.01-3.78-5.13-5.16c-2.13-1.38-4.54-2.54-7.23-3.47c-2.7-0.93-5.47-1.85-8.32-2.74c-2.85-0.89-5.62-1.89-8.32-3
			c-2.7-1.1-5.11-2.52-7.23-4.24c-2.13-1.72-3.83-3.87-5.13-6.44c-1.3-2.57-1.94-5.79-1.94-9.66c0-3.02,0.57-5.93,1.72-8.73
			c1.15-2.8,2.82-5.28,5.03-7.42c2.21-2.14,4.94-3.87,8.19-5.16c3.25-1.3,6.96-1.94,11.12-1.94c4.67,0,8.87,0.74,12.59,2.23
			c3.72,1.49,7.11,3.76,10.17,6.82L1075.92,812.73z"/>
	</g>
</g>
</svg>
